<?xml version="1.0" encoding="UTF-8"?>
<svg width="56px" height="56px" viewBox="0 0 56 56" version="1.1" xmlns="http://www.w3.org/2000/svg" xmlns:xlink="http://www.w3.org/1999/xlink">
    <!-- Generator: Sketch 53.2 (72643) - https://sketchapp.com -->
    <title>statik_config_logo</title>
    <desc>Created with Sketch.</desc>
    <g id="Page-1" stroke="none" stroke-width="1" fill="none" fill-rule="evenodd">
        <path d="M56,51.8631109 C56,54.1475001 54.147347,56 51.8631351,56 L4.13670088,56 C1.85248906,56 0,54.1473361 0,51.8631109 L0,4.13688908 C0,1.85151611 1.85248906,0 4.13670088,0 L51.8629712,0 C54.147347,0 55.999836,1.85151611 55.999836,4.13688908 L55.999836,51.8631109 L56,51.8631109 Z" id="Shape" fill="#1F4B7F" fill-rule="nonzero"></path>
        <g id="iconfinder_Essentials_page_web_settings_config_cog_5298729" transform="translate(9.000000, 11.000000)" stroke="#FFFFFF">
            <path d="M0,8.5 L38,8.5" id="Path" stroke-linejoin="round"></path>
            <path d="M3,4.5 L6,4.5" id="Path" stroke-linejoin="round"></path>
            <path d="M7,4.5 L10,4.5" id="Path" stroke-linejoin="round"></path>
            <path d="M11,4.5 L14,4.5" id="Path" stroke-linejoin="round"></path>
            <path d="M8.47692308,33 L0,33 L0,0 L38,0 L38,33 L29.5230769,33 C29.9615385,32.85 30.4,32.85 30.8384615,32.85 C30.9846154,31.95 31.1307692,30.9 31.1307692,30 C31.1307692,28.95 30.9846154,28.05 30.8384615,27.15 C29.3769231,27.3 27.9153846,26.7 27.1846154,25.2 C26.4538462,23.85 26.6,22.2 27.4769231,21 C26.1615385,19.65 24.4076923,18.6 22.5076923,18 C21.9230769,19.35 20.6076923,20.4 19,20.4 C17.3923077,20.4 16.0769231,19.35 15.4923077,18 C13.5923077,18.6 11.9846154,19.65 10.5230769,21 C11.4,22.2 11.5461538,23.85 10.8153846,25.2 C10.0846154,26.55 8.47692308,27.3 7.16153846,27.15 C7.01538462,28.05 6.86923077,29.1 6.86923077,30 C6.86923077,31.05 7.01538462,31.95 7.16153846,32.85 C7.6,32.85 8.03846154,32.85 8.47692308,33 L8.47692308,33 Z" id="Path" stroke-linejoin="round"></path>
            <circle id="Oval" cx="19.5" cy="29.5" r="4.5"></circle>
        </g>
    </g>
</svg>